<svg width="19" height="19" viewBox="0 0 19 19" fill="none" xmlns="http://www.w3.org/2000/svg">
<path d="M9.50002 1.58325C7.96456 1.58617 6.46309 2.03554 5.17849 2.87663C3.89389 3.71772 2.8816 4.91422 2.26493 6.3204C1.64826 7.72658 1.45382 9.28175 1.70529 10.7965C1.95676 12.3112 2.6433 13.7201 3.68127 14.8516C4.4226 15.6552 5.32235 16.2965 6.3238 16.7351C7.32526 17.1738 8.40671 17.4002 9.50002 17.4002C10.5933 17.4002 11.6748 17.1738 12.6762 16.7351C13.6777 16.2965 14.5774 15.6552 15.3188 14.8516C16.3567 13.7201 17.0433 12.3112 17.2947 10.7965C17.5462 9.28175 17.3518 7.72658 16.7351 6.3204C16.1184 4.91422 15.1061 3.71772 13.8215 2.87663C12.5369 2.03554 11.0355 1.58617 9.50002 1.58325ZM9.50002 15.8333C7.86005 15.8308 6.28499 15.1922 5.10627 14.052C5.46414 13.1808 6.07292 12.4357 6.85526 11.9112C7.6376 11.3868 8.55818 11.1068 9.50002 11.1068C10.4419 11.1068 11.3624 11.3868 12.1448 11.9112C12.9271 12.4357 13.5359 13.1808 13.8938 14.052C12.715 15.1922 11.14 15.8308 9.50002 15.8333ZM7.91669 7.91659C7.91669 7.60343 8.00955 7.29731 8.18352 7.03693C8.3575 6.77656 8.60479 6.57361 8.8941 6.45378C9.18342 6.33394 9.50177 6.30258 9.80891 6.36368C10.116 6.42477 10.3982 6.57557 10.6196 6.797C10.841 7.01843 10.9918 7.30056 11.0529 7.60769C11.114 7.91483 11.0827 8.23318 10.9628 8.5225C10.843 8.81182 10.64 9.0591 10.3797 9.23308C10.1193 9.40706 9.81317 9.49992 9.50002 9.49992C9.08009 9.49992 8.67736 9.3331 8.38043 9.03617C8.0835 8.73924 7.91669 8.33651 7.91669 7.91659ZM14.9704 12.6666C14.2631 11.4567 13.1745 10.5156 11.875 9.99075C12.2781 9.53369 12.5408 8.97002 12.6314 8.36739C12.7221 7.76476 12.637 7.14876 12.3862 6.59331C12.1355 6.03787 11.7298 5.56657 11.2179 5.23597C10.7059 4.90538 10.1094 4.72953 9.50002 4.72953C8.8906 4.72953 8.29413 4.90538 7.78217 5.23597C7.27022 5.56657 6.86454 6.03787 6.6138 6.59331C6.36306 7.14876 6.27792 7.76476 6.3686 8.36739C6.45928 8.97002 6.72193 9.53369 7.12502 9.99075C5.82558 10.5156 4.73693 11.4567 4.0296 12.6666C3.46589 11.7064 3.16805 10.6134 3.16668 9.49992C3.16668 7.82021 3.83395 6.20931 5.02168 5.02158C6.20941 3.83385 7.82031 3.16659 9.50002 3.16659C11.1797 3.16659 12.7906 3.83385 13.9784 5.02158C15.1661 6.20931 15.8334 7.82021 15.8334 9.49992C15.832 10.6134 15.5341 11.7064 14.9704 12.6666Z" fill="black"/>
</svg>
