<svg width="23" height="23" viewBox="0 0 23 23" fill="none" xmlns="http://www.w3.org/2000/svg">
<path d="M5.33894 7.5584C5.06438 5.75002 6.33944 4.12565 8.28725 3.53052C8.63291 3.42484 9.00585 3.45492 9.3301 3.61464C9.65434 3.77436 9.90549 4.0517 10.0324 4.39015L10.6577 6.05765C10.7584 6.3259 10.7766 6.61812 10.71 6.8968C10.6434 7.17547 10.495 7.42789 10.2839 7.62165L8.42381 9.32509C8.33213 9.40923 8.2638 9.51569 8.22551 9.6341C8.18722 9.7525 8.18026 9.87881 8.20531 10.0007L8.22256 10.0755L8.26713 10.2623C8.49846 11.1703 8.85093 12.0431 9.31506 12.857C9.82065 13.722 10.4481 14.5096 11.1781 15.1958L11.2356 15.2476C11.3284 15.33 11.4411 15.387 11.5625 15.4129C11.6839 15.4389 11.81 15.4329 11.9284 15.3956L14.3334 14.6381C14.6067 14.5523 14.8994 14.5501 15.174 14.6318C15.4486 14.7135 15.6924 14.8754 15.8744 15.0966L17.0129 16.4781C17.4873 17.0531 17.4298 17.8983 16.8849 18.4058C15.3943 19.7958 13.3444 20.0805 11.9184 18.9348C10.1704 17.5248 8.69687 15.8052 7.57138 13.8618C6.43675 11.92 5.67885 9.78139 5.3375 7.5584H5.33894ZM9.71325 10.0956L11.2543 8.68109C11.6766 8.29373 11.9736 7.78898 12.1071 7.23162C12.2405 6.67426 12.2043 6.08974 12.0032 5.55308L11.3793 3.88559C11.1239 3.20457 10.6185 2.64655 9.96599 2.32523C9.31348 2.00392 8.56301 1.9435 7.8675 2.15627C5.44819 2.89659 3.50613 5.06577 3.91725 7.77546C4.20475 9.66721 4.86744 12.0736 6.32938 14.5863C7.54365 16.6818 9.13316 18.5359 11.0185 20.056C13.1575 21.7738 16.0124 21.1873 17.8668 19.4595C18.9679 18.4331 19.08 16.7282 18.1241 15.5667L16.9856 14.1838C16.6214 13.7418 16.1334 13.4186 15.5843 13.2557C15.0352 13.0928 14.4499 13.0976 13.9036 13.2696L11.9069 13.8978C11.3913 13.3662 10.9398 12.7762 10.5614 12.1397C10.1959 11.4962 9.911 10.8102 9.71325 10.097V10.0956Z" fill="#484848"/>
</svg>
