<svg width="18" height="18" viewBox="0 0 18 18" fill="none" xmlns="http://www.w3.org/2000/svg">
<path d="M8.361 11.961C8.3223 12.0038 8.28623 12.0488 8.253 12.096C8.21894 12.1462 8.1917 12.2006 8.172 12.258C8.14605 12.309 8.12785 12.3636 8.118 12.42C8.11359 12.4799 8.11359 12.5401 8.118 12.6C8.11496 12.7181 8.13962 12.8352 8.19 12.942C8.23042 13.0537 8.29491 13.1551 8.3789 13.2391C8.46289 13.3231 8.56432 13.3876 8.676 13.428C8.78373 13.4756 8.90022 13.5002 9.018 13.5002C9.13579 13.5002 9.25227 13.4756 9.36 13.428C9.47169 13.3876 9.57312 13.3231 9.65711 13.2391C9.74109 13.1551 9.80558 13.0537 9.846 12.942C9.88597 12.8326 9.90431 12.7164 9.9 12.6C9.90069 12.4816 9.87798 12.3641 9.8332 12.2545C9.78841 12.1448 9.72242 12.0451 9.639 11.961C9.55534 11.8766 9.4558 11.8097 9.34612 11.764C9.23645 11.7183 9.11881 11.6948 9 11.6948C8.88119 11.6948 8.76356 11.7183 8.65388 11.764C8.54421 11.8097 8.44467 11.8766 8.361 11.961ZM9 0C7.21997 0 5.47991 0.527841 3.99987 1.51677C2.51983 2.50571 1.36628 3.91131 0.685088 5.55585C0.00389954 7.20038 -0.17433 9.00998 0.172936 10.7558C0.520203 12.5016 1.37737 14.1053 2.63604 15.364C3.89471 16.6226 5.49836 17.4798 7.24419 17.8271C8.99002 18.1743 10.7996 17.9961 12.4442 17.3149C14.0887 16.6337 15.4943 15.4802 16.4832 14.0001C17.4722 12.5201 18 10.78 18 9C18 7.8181 17.7672 6.64778 17.3149 5.55585C16.8626 4.46392 16.1997 3.47177 15.364 2.63604C14.5282 1.80031 13.5361 1.13738 12.4442 0.685084C11.3522 0.232792 10.1819 0 9 0ZM9 16.2C7.57598 16.2 6.18393 15.7777 4.9999 14.9866C3.81586 14.1954 2.89302 13.0709 2.34807 11.7553C1.80312 10.4397 1.66054 8.99201 1.93835 7.59535C2.21616 6.19869 2.9019 4.91577 3.90883 3.90883C4.91577 2.90189 6.19869 2.21616 7.59535 1.93835C8.99202 1.66053 10.4397 1.80312 11.7553 2.34807C13.0709 2.89302 14.1954 3.81586 14.9866 4.99989C15.7777 6.18393 16.2 7.57597 16.2 9C16.2 10.9096 15.4414 12.7409 14.0912 14.0912C12.7409 15.4414 10.9096 16.2 9 16.2ZM9 4.5C8.52576 4.49969 8.0598 4.62431 7.64902 4.8613C7.23824 5.09829 6.89712 5.43929 6.66 5.85C6.59488 5.95243 6.55116 6.06698 6.53146 6.18676C6.51176 6.30653 6.51649 6.42905 6.54537 6.54695C6.57425 6.66484 6.62667 6.77568 6.6995 6.87279C6.77232 6.9699 6.86404 7.05127 6.96913 7.11202C7.07422 7.17276 7.19051 7.21162 7.311 7.22626C7.4315 7.24089 7.55371 7.23101 7.67029 7.19719C7.78686 7.16337 7.89539 7.10632 7.98935 7.02947C8.0833 6.95261 8.16074 6.85755 8.217 6.75C8.2963 6.61265 8.41047 6.4987 8.54797 6.41968C8.68547 6.34066 8.84141 6.29937 9 6.3C9.2387 6.3 9.46762 6.39482 9.6364 6.5636C9.80518 6.73239 9.9 6.9613 9.9 7.2C9.9 7.43869 9.80518 7.66761 9.6364 7.83639C9.46762 8.00518 9.2387 8.1 9 8.1C8.76131 8.1 8.53239 8.19482 8.36361 8.3636C8.19482 8.53238 8.1 8.7613 8.1 9V9.9C8.1 10.1387 8.19482 10.3676 8.36361 10.5364C8.53239 10.7052 8.76131 10.8 9 10.8C9.2387 10.8 9.46762 10.7052 9.6364 10.5364C9.80518 10.3676 9.9 10.1387 9.9 9.9V9.738C10.4952 9.52202 10.9956 9.1037 11.3137 8.55618C11.6318 8.00866 11.7473 7.36676 11.6401 6.7427C11.5328 6.11864 11.2097 5.55211 10.7271 5.14216C10.2445 4.73221 9.63319 4.50491 9 4.5Z" fill="black"/>
</svg>
