<svg width="65" height="65" viewBox="0 0 65 65" fill="none" xmlns="http://www.w3.org/2000/svg">
<circle cx="32.5" cy="32.5" r="32.5" transform="matrix(-1 0 0 1 65 0)" fill="#90E0EF" fill-opacity="0.5"/>
<path d="M16.1667 25.6664L28.4167 16.0231C29.5396 15.1212 30.9934 14.6226 32.5 14.6226C34.0066 14.6226 35.4604 15.1212 36.5833 16.0231L48.8333 25.6664C49.4818 26.1872 49.9993 26.8261 50.3514 27.5405C50.7034 28.255 50.8819 29.0286 50.875 29.8098V45.8331C50.875 47.2918 50.2297 48.6907 49.081 49.7222C47.9324 50.7536 46.3744 51.3331 44.75 51.3331H20.25C18.6255 51.3331 17.0676 50.7536 15.919 49.7222C14.7703 48.6907 14.125 47.2918 14.125 45.8331V29.7914C14.121 29.0133 14.3009 28.2433 14.6528 27.5322C15.0048 26.8211 15.5207 26.1852 16.1667 25.6664ZM28.4167 47.6664H36.5833V38.4998C36.5833 38.0135 36.3682 37.5472 35.9853 37.2034C35.6024 36.8596 35.0831 36.6664 34.5417 36.6664H30.4583C29.9168 36.6664 29.3975 36.8596 29.0146 37.2034C28.6318 37.5472 28.4167 38.0135 28.4167 38.4998V47.6664ZM18.2083 45.8331C18.2083 46.3193 18.4234 46.7856 18.8063 47.1295C19.1892 47.4733 19.7085 47.6664 20.25 47.6664H24.3333V38.4998C24.3333 37.0411 24.9786 35.6421 26.1273 34.6107C27.276 33.5792 28.8339 32.9998 30.4583 32.9998H34.5417C36.1661 32.9998 37.724 33.5792 38.8727 34.6107C40.0213 35.6421 40.6667 37.0411 40.6667 38.4998V47.6664H44.75C45.2915 47.6664 45.8108 47.4733 46.1937 47.1295C46.5766 46.7856 46.7917 46.3193 46.7917 45.8331V29.7914C46.7913 29.5311 46.7292 29.2739 46.6095 29.0368C46.4898 28.7997 46.3153 28.5882 46.0975 28.4164L33.8475 18.7914C33.4749 18.4975 32.9959 18.3354 32.5 18.3354C32.0041 18.3354 31.5251 18.4975 31.1525 18.7914L18.9025 28.4164C18.6847 28.5882 18.5102 28.7997 18.3905 29.0368C18.2708 29.2739 18.2087 29.5311 18.2083 29.7914V45.8331Z" fill="black"/>
</svg>
