<svg width="25" height="26" viewBox="0 0 25 26" fill="none" xmlns="http://www.w3.org/2000/svg">
<path d="M1.36526 2.42969L21.1028 21.1742C21.4773 21.5299 21.6877 22.0123 21.6877 22.5153C21.6877 23.0183 21.4773 23.5007 21.1028 23.8564V23.8564C20.7282 24.212 20.2203 24.4117 19.6907 24.4117C19.1611 24.4117 18.6531 24.212 18.2785 23.8564L13.457 19.1987C13.1415 18.8944 12.9645 18.4845 12.9642 18.0575V17.7761C12.9642 17.5605 12.9191 17.347 12.8316 17.1481C12.744 16.9491 12.6157 16.7686 12.4542 16.6172L11.8316 16.0713C11.6203 15.8861 11.3633 15.7544 11.0844 15.6882C10.8054 15.6221 10.5134 15.6236 10.2352 15.6927V15.6927C9.79653 15.8015 9.33555 15.7994 8.898 15.6866C8.46046 15.5739 8.06155 15.3545 7.74087 15.0502L3.16421 10.7033C0.449173 8.12483 -0.549947 4.23123 1.36526 2.42969Z" stroke="#484848" stroke-width="1.5" stroke-linejoin="round"/>
<path d="M19.7142 1.62891L15.5757 5.55913C15.2573 5.8615 15.0047 6.22048 14.8323 6.61558C14.66 7.01067 14.5713 7.43414 14.5713 7.8618V8.61783C14.5713 8.7248 14.5491 8.83072 14.506 8.92954C14.4629 9.02836 14.3997 9.11814 14.32 9.19375L13.7141 9.76917" stroke="#484848" stroke-width="1.5" stroke-linecap="round" stroke-linejoin="round"/>
<path d="M15.4285 11.3972L16.0344 10.8218C16.114 10.7461 16.2085 10.6861 16.3126 10.6451C16.4166 10.6042 16.5282 10.5831 16.6408 10.5831H17.4369C17.8872 10.5832 18.3331 10.4989 18.7491 10.3352C19.1652 10.1716 19.5432 9.93164 19.8616 9.62921L24 5.69897" stroke="#484848" stroke-width="1.5" stroke-linecap="round" stroke-linejoin="round"/>
<path d="M21.8571 3.66406L17.5713 7.73421" stroke="#484848" stroke-width="1.5" stroke-linecap="round" stroke-linejoin="round"/>
<path d="M8.99966 18.7233L3.65745 23.8252C3.2556 24.2067 2.71064 24.4211 2.14243 24.4211C1.57421 24.4211 1.02926 24.2067 0.627408 23.8252V23.8252C0.225679 23.4436 0 22.926 0 22.3864C0 21.8468 0.225679 21.3293 0.627408 20.9476L5.14247 16.6882" stroke="#484848" stroke-width="1.5" stroke-linecap="round" stroke-linejoin="round"/>
</svg>
