<svg width="18" height="18" viewBox="0 0 18 18" fill="none" xmlns="http://www.w3.org/2000/svg">
<path d="M18 9C18 8.7613 17.8815 8.53239 17.6705 8.3636C17.4595 8.19482 17.1734 8.1 16.875 8.1H8.33625L10.9237 6.039C11.0286 5.95509 11.1118 5.85546 11.1686 5.74582C11.2254 5.63618 11.2546 5.51867 11.2546 5.4C11.2546 5.28133 11.2254 5.16382 11.1686 5.05418C11.1118 4.94454 11.0286 4.84491 10.9237 4.761C10.8189 4.67709 10.6943 4.61052 10.5573 4.56511C10.4202 4.51969 10.2733 4.49632 10.125 4.49632C9.97666 4.49632 9.82977 4.51969 9.69272 4.56511C9.55567 4.61052 9.43114 4.67709 9.32625 4.761L4.82625 8.361C4.72383 8.44659 4.64354 8.54752 4.59 8.658C4.47748 8.87712 4.47748 9.12288 4.59 9.342C4.64354 9.45248 4.72383 9.55341 4.82625 9.639L9.32625 13.239C9.43083 13.3234 9.55526 13.3903 9.69235 13.436C9.82944 13.4817 9.97649 13.5052 10.125 13.5052C10.2735 13.5052 10.4206 13.4817 10.5576 13.436C10.6947 13.3903 10.8192 13.3234 10.9237 13.239C11.0292 13.1553 11.1129 13.0558 11.17 12.9461C11.2271 12.8364 11.2565 12.7188 11.2565 12.6C11.2565 12.4812 11.2271 12.3636 11.17 12.2539C11.1129 12.1442 11.0292 12.0447 10.9237 11.961L8.33625 9.9H16.875C17.1734 9.9 17.4595 9.80518 17.6705 9.6364C17.8815 9.46761 18 9.23869 18 9ZM14.625 0H3.375C2.47989 0 1.62145 0.284464 0.988515 0.790812C0.355579 1.29716 0 1.98392 0 2.7V15.3C0 16.0161 0.355579 16.7028 0.988515 17.2092C1.62145 17.7155 2.47989 18 3.375 18H14.625C15.5201 18 16.3786 17.7155 17.0115 17.2092C17.6444 16.7028 18 16.0161 18 15.3V12.6C18 12.3613 17.8815 12.1324 17.6705 11.9636C17.4595 11.7948 17.1734 11.7 16.875 11.7C16.5766 11.7 16.2905 11.7948 16.0795 11.9636C15.8685 12.1324 15.75 12.3613 15.75 12.6V15.3C15.75 15.5387 15.6315 15.7676 15.4205 15.9364C15.2095 16.1052 14.9234 16.2 14.625 16.2H3.375C3.07663 16.2 2.79048 16.1052 2.5795 15.9364C2.36853 15.7676 2.25 15.5387 2.25 15.3V2.7C2.25 2.46131 2.36853 2.23239 2.5795 2.0636C2.79048 1.89482 3.07663 1.8 3.375 1.8H14.625C14.9234 1.8 15.2095 1.89482 15.4205 2.0636C15.6315 2.23239 15.75 2.46131 15.75 2.7V5.4C15.75 5.63869 15.8685 5.86761 16.0795 6.0364C16.2905 6.20518 16.5766 6.3 16.875 6.3C17.1734 6.3 17.4595 6.20518 17.6705 6.0364C17.8815 5.86761 18 5.63869 18 5.4V2.7C18 1.98392 17.6444 1.29716 17.0115 0.790812C16.3786 0.284464 15.5201 0 14.625 0Z" fill="black"/>
</svg>
