<svg width="16" height="21" viewBox="0 0 16 21" fill="none" xmlns="http://www.w3.org/2000/svg">
<g clip-path="url(#clip0_72_462)">
<path d="M4.66669 5.25C4.8435 5.25 5.01307 5.15781 5.13809 4.99372C5.26312 4.82962 5.33335 4.60706 5.33335 4.375C5.33335 4.14294 5.26312 3.92038 5.13809 3.75628C5.01307 3.59219 4.8435 3.5 4.66669 3.5H3.33335C3.15654 3.5 2.98697 3.59219 2.86195 3.75628C2.73693 3.92038 2.66669 4.14294 2.66669 4.375V16.625C2.66669 16.8571 2.73693 17.0796 2.86195 17.2437C2.98697 17.4078 3.15654 17.5 3.33335 17.5H4.66669C4.8435 17.5 5.01307 17.4078 5.13809 17.2437C5.26312 17.0796 5.33335 16.8571 5.33335 16.625C5.33335 16.3929 5.26312 16.1704 5.13809 16.0063C5.01307 15.8422 4.8435 15.75 4.66669 15.75H4.00002V5.25H4.66669ZM13.88 9.9925L12 6.4925C11.8981 6.30386 11.7434 6.17587 11.5697 6.13652C11.3961 6.09717 11.2176 6.14965 11.0734 6.2825C11.0013 6.34881 10.9399 6.43321 10.8928 6.53083C10.8456 6.62845 10.8137 6.73734 10.7988 6.85124C10.784 6.96513 10.7864 7.08176 10.8061 7.1944C10.8257 7.30704 10.8622 7.41345 10.9134 7.5075L12.06 9.625H6.66669C6.48988 9.625 6.32031 9.71719 6.19528 9.88128C6.07026 10.0454 6.00002 10.2679 6.00002 10.5C6.00002 10.7321 6.07026 10.9546 6.19528 11.1187C6.32031 11.2828 6.48988 11.375 6.66669 11.375H12L10.8 13.475C10.7475 13.5669 10.7093 13.6715 10.6875 13.7828C10.6658 13.8942 10.661 14.01 10.6734 14.1237C10.6858 14.2375 10.7151 14.3469 10.7597 14.4458C10.8043 14.5447 10.8633 14.6311 10.9334 14.7C11.0488 14.8136 11.1891 14.875 11.3334 14.875C11.4369 14.875 11.5389 14.8434 11.6315 14.7826C11.7241 14.7219 11.8046 14.6337 11.8667 14.525L13.8667 11.025C13.9521 10.877 13.9994 10.6972 14.0018 10.5116C14.0042 10.326 13.9615 10.1442 13.88 9.9925Z" fill="black"/>
</g>
<defs>
<clipPath id="clip0_72_462">
<rect width="16" height="21" fill="white"/>
</clipPath>
</defs>
</svg>
