<svg width="16" height="17" viewBox="0 0 16 17" fill="none" xmlns="http://www.w3.org/2000/svg">
<g clip-path="url(#clip0_69_1774)">
<path d="M8.14284 16.0893C8.14284 15.9881 8.09522 15.9375 7.99998 15.9375C7.64879 15.9375 7.34671 15.8031 7.09373 15.5343C6.84076 15.2655 6.71427 14.9446 6.71427 14.5714C6.71427 14.4702 6.66665 14.4196 6.57141 14.4196C6.47617 14.4196 6.42855 14.4702 6.42855 14.5714C6.42855 15.0331 6.58183 15.4268 6.88837 15.7525C7.19492 16.0782 7.56546 16.2411 7.99998 16.2411C8.09522 16.2411 8.14284 16.1905 8.14284 16.0893ZM2.19641 13.3571H13.8036C12.2202 11.4598 11.4286 8.82887 11.4286 5.46429C11.4286 5.14174 11.3571 4.80971 11.2143 4.46819C11.0714 4.12667 10.8661 3.80097 10.5982 3.49107C10.3303 3.18118 9.96873 2.92662 9.51338 2.7274C9.05802 2.52818 8.55355 2.42857 7.99998 2.42857C7.44641 2.42857 6.94195 2.52818 6.48659 2.7274C6.03123 2.92662 5.66963 3.18118 5.40177 3.49107C5.13391 3.80097 4.92855 4.12667 4.7857 4.46819C4.64284 4.80971 4.57141 5.14174 4.57141 5.46429C4.57141 8.82887 3.77974 11.4598 2.19641 13.3571ZM15.4286 13.3571C15.4286 13.686 15.3155 13.9706 15.0893 14.2109C14.8631 14.4513 14.5952 14.5714 14.2857 14.5714H10.2857C10.2857 15.2418 10.0625 15.8142 9.61605 16.2885C9.16963 16.7628 8.63093 17 7.99998 17C7.36903 17 6.83034 16.7628 6.38391 16.2885C5.93748 15.8142 5.71427 15.2418 5.71427 14.5714H1.71427C1.40474 14.5714 1.13689 14.4513 0.910697 14.2109C0.684506 13.9706 0.571411 13.686 0.571411 13.3571C0.86903 13.0915 1.13986 12.8132 1.38391 12.5223C1.62796 12.2314 1.88093 11.8535 2.14284 11.3887C2.40474 10.9238 2.62647 10.4226 2.80802 9.88505C2.98957 9.34747 3.13838 8.69606 3.25445 7.9308C3.37052 7.16555 3.42855 6.34338 3.42855 5.46429C3.42855 4.50298 3.77677 3.60965 4.4732 2.78432C5.16963 1.95898 6.08332 1.45778 7.21427 1.28069C7.16665 1.16053 7.14284 1.0372 7.14284 0.910714C7.14284 0.657738 7.22617 0.442708 7.39284 0.265625C7.55951 0.0885417 7.76189 0 7.99998 0C8.23808 0 8.44046 0.0885417 8.60713 0.265625C8.77379 0.442708 8.85713 0.657738 8.85713 0.910714C8.85713 1.0372 8.83332 1.16053 8.7857 1.28069C9.91665 1.45778 10.8303 1.95898 11.5268 2.78432C12.2232 3.60965 12.5714 4.50298 12.5714 5.46429C12.5714 6.34338 12.6294 7.16555 12.7455 7.9308C12.8616 8.69606 13.0104 9.34747 13.1919 9.88505C13.3735 10.4226 13.5952 10.9238 13.8571 11.3887C14.119 11.8535 14.372 12.2314 14.6161 12.5223C14.8601 12.8132 15.1309 13.0915 15.4286 13.3571Z" fill="black"/>
</g>
<defs>
<clipPath id="clip0_69_1774">
<rect width="16" height="17" fill="white"/>
</clipPath>
</defs>
</svg>
