<svg width="65" height="65" viewBox="0 0 65 65" fill="none" xmlns="http://www.w3.org/2000/svg">
<circle cx="32.5" cy="32.5" r="32.5" transform="matrix(-1 0 0 1 65 0)" fill="#90E0EF" fill-opacity="0.5"/>
<path d="M51.087 36.3052C48.952 36.3052 46.9044 37.0668 45.3947 38.4224C43.885 39.7781 43.0369 41.6167 43.0369 43.5339" stroke="black" stroke-width="2" stroke-miterlimit="10" stroke-linecap="round" stroke-linejoin="round"/>
<path d="M43.0369 22.0806C43.0369 23.9977 43.885 25.8364 45.3947 27.192C46.9044 28.5477 48.952 29.3093 51.087 29.3093" stroke="black" stroke-width="2" stroke-miterlimit="10" stroke-linecap="round" stroke-linejoin="round"/>
<path d="M9.88461 29.3093C12.0196 29.3093 14.0672 28.5477 15.5769 27.192C17.0866 25.8364 17.9347 23.9977 17.9347 22.0806" stroke="black" stroke-width="2" stroke-miterlimit="10" stroke-linecap="round" stroke-linejoin="round"/>
<path d="M17.9347 43.5339C17.9347 42.5846 17.7265 41.6446 17.322 40.7676C16.9174 39.8905 16.3244 39.0937 15.5769 38.4224C14.8294 37.7512 13.942 37.2187 12.9653 36.8554C11.9886 36.4921 10.9418 36.3052 9.88461 36.3052" stroke="black" stroke-width="2" stroke-miterlimit="10" stroke-linecap="round" stroke-linejoin="round"/>
<path d="M9.88461 22.0806H51.087V43.534H9.88461V22.0806Z" stroke="black" stroke-width="3" stroke-miterlimit="10" stroke-linecap="round" stroke-linejoin="round"/>
<path d="M33.562 30.0455C33.562 29.4993 33.3816 28.9654 33.0437 28.5112C32.7058 28.0571 32.2255 27.7031 31.6635 27.494C31.1016 27.2849 30.4832 27.2302 29.8866 27.3367C29.29 27.4432 28.7419 27.7062 28.3118 28.0923C27.8816 28.4785 27.5886 28.9705 27.4698 29.5062C27.351 30.0419 27.4118 30.5972 27.6444 31.1019C27.8771 31.6065 28.2712 32.0379 28.7768 32.3415C29.2825 32.6451 29.8771 32.8072 30.4853 32.8074" stroke="black" stroke-width="3" stroke-miterlimit="10" stroke-linecap="round" stroke-linejoin="round"/>
<path d="M27.4096 35.569C27.4096 36.1152 27.59 36.6492 27.928 37.1034C28.2659 37.5576 28.7463 37.9116 29.3083 38.1206C29.8703 38.3296 30.4887 38.3843 31.0854 38.2778C31.682 38.1712 32.23 37.9081 32.6602 37.5219C33.0903 37.1356 33.3832 36.6435 33.5019 36.1078C33.6206 35.572 33.5597 35.0167 33.3269 34.5121C33.0941 34.0074 32.6999 33.5761 32.1941 33.2726C31.6883 32.9691 31.0936 32.8071 30.4853 32.8071" stroke="black" stroke-width="3" stroke-miterlimit="10" stroke-linecap="round" stroke-linejoin="round"/>
<path d="M30.4854 26.1753V39.4396" stroke="black" stroke-width="3" stroke-miterlimit="10" stroke-linecap="round" stroke-linejoin="round"/>
<path d="M51.0899 39.9167H55.1154V18.4658H13.913V22.0806" stroke="black" stroke-width="2" stroke-miterlimit="10" stroke-linecap="round" stroke-linejoin="round"/>
<path d="M51.087 36.3052C48.952 36.3052 46.9044 37.0668 45.3947 38.4224C43.885 39.7781 43.0369 41.6167 43.0369 43.5339" stroke="black" stroke-width="2" stroke-miterlimit="10" stroke-linecap="round" stroke-linejoin="round"/>
<path d="M43.0369 22.0806C43.0369 23.9977 43.885 25.8364 45.3947 27.192C46.9044 28.5477 48.952 29.3093 51.087 29.3093" stroke="black" stroke-width="2" stroke-miterlimit="10" stroke-linecap="round" stroke-linejoin="round"/>
<path d="M9.88461 29.3093C12.0196 29.3093 14.0672 28.5477 15.5769 27.192C17.0866 25.8364 17.9347 23.9977 17.9347 22.0806" stroke="black" stroke-width="2" stroke-miterlimit="10" stroke-linecap="round" stroke-linejoin="round"/>
<path d="M17.9347 43.5339C17.9347 42.5846 17.7265 41.6446 17.322 40.7676C16.9174 39.8905 16.3244 39.0937 15.5769 38.4224C14.8294 37.7512 13.942 37.2187 12.9653 36.8554C11.9886 36.4921 10.9418 36.3052 9.88461 36.3052" stroke="black" stroke-width="2" stroke-miterlimit="10" stroke-linecap="round" stroke-linejoin="round"/>
<path d="M51.0898 39.9167H55.1154V18.4658H13.913V22.0806" stroke="black" stroke-width="2" stroke-miterlimit="10" stroke-linecap="round" stroke-linejoin="round"/>
</svg>
