<svg width="65" height="65" viewBox="0 0 65 65" fill="none" xmlns="http://www.w3.org/2000/svg">
<circle cx="32.5" cy="32.5" r="32.5" transform="matrix(-1 0 0 1 65 0)" fill="#90E0EF" fill-opacity="0.5"/>
<path d="M36.5833 31.1665H34.5417V23.8332H38.625C39.1665 23.8332 39.6858 24.0263 40.0687 24.3701C40.4516 24.714 40.6667 25.1803 40.6667 25.6665C40.6667 26.1527 40.8818 26.619 41.2647 26.9629C41.6475 27.3067 42.1669 27.4998 42.7083 27.4998C43.2498 27.4998 43.7691 27.3067 44.152 26.9629C44.5349 26.619 44.75 26.1527 44.75 25.6665C44.75 24.2078 44.1047 22.8089 42.956 21.7774C41.8074 20.746 40.2495 20.1665 38.625 20.1665H34.5417V16.4998C34.5417 16.0136 34.3266 15.5473 33.9437 15.2035C33.5608 14.8597 33.0415 14.6665 32.5 14.6665C31.9585 14.6665 31.4392 14.8597 31.0563 15.2035C30.6734 15.5473 30.4583 16.0136 30.4583 16.4998V20.1665H28.4167C26.2507 20.1665 24.1735 20.9391 22.642 22.3144C21.1104 23.6897 20.25 25.5549 20.25 27.4998C20.25 29.4448 21.1104 31.31 22.642 32.6853C24.1735 34.0606 26.2507 34.8332 28.4167 34.8332H30.4583V42.1665H26.375C25.8335 42.1665 25.3142 41.9734 24.9313 41.6295C24.5484 41.2857 24.3333 40.8194 24.3333 40.3332C24.3333 39.8469 24.1182 39.3806 23.7353 39.0368C23.3525 38.693 22.8332 38.4998 22.2917 38.4998C21.7502 38.4998 21.2309 38.693 20.848 39.0368C20.4651 39.3806 20.25 39.8469 20.25 40.3332C20.25 41.7919 20.8953 43.1908 22.044 44.2223C23.1926 45.2537 24.7505 45.8332 26.375 45.8332H30.4583V49.4998C30.4583 49.9861 30.6734 50.4524 31.0563 50.7962C31.4392 51.14 31.9585 51.3332 32.5 51.3332C33.0415 51.3332 33.5608 51.14 33.9437 50.7962C34.3266 50.4524 34.5417 49.9861 34.5417 49.4998V45.8332H36.5833C38.7493 45.8332 40.8265 45.0606 42.358 43.6853C43.8896 42.31 44.75 40.4448 44.75 38.4998C44.75 36.5549 43.8896 34.6897 42.358 33.3144C40.8265 31.9391 38.7493 31.1665 36.5833 31.1665ZM30.4583 31.1665H28.4167C27.3337 31.1665 26.2951 30.7802 25.5293 30.0926C24.7635 29.4049 24.3333 28.4723 24.3333 27.4998C24.3333 26.5274 24.7635 25.5947 25.5293 24.9071C26.2951 24.2195 27.3337 23.8332 28.4167 23.8332H30.4583V31.1665ZM36.5833 42.1665H34.5417V34.8332H36.5833C37.6663 34.8332 38.7049 35.2195 39.4707 35.9071C40.2365 36.5947 40.6667 37.5274 40.6667 38.4998C40.6667 39.4723 40.2365 40.4049 39.4707 41.0926C38.7049 41.7802 37.6663 42.1665 36.5833 42.1665Z" fill="black"/>
</svg>
