<svg width="18" height="18" viewBox="0 0 18 18" fill="none" xmlns="http://www.w3.org/2000/svg">
<path d="M3.06825 3.84155C3.06942 4.86006 3.5076 5.83655 4.28665 6.55674C5.06571 7.27694 6.12199 7.68202 7.22374 7.6831C9.51504 7.6831 11.3792 5.96032 11.3792 3.84155C11.3792 1.72277 9.51567 0 7.22374 0C6.12199 0.00107592 5.06571 0.406155 4.28665 1.12635C3.5076 1.84655 3.06942 2.82304 3.06825 3.84155ZM7.22311 1.74194C8.47554 1.74194 9.49431 2.68374 9.49431 3.84155C9.49431 4.99935 8.47554 5.94116 7.22311 5.94116C5.97069 5.94116 4.95254 4.99935 4.95254 3.84155C4.95254 2.68374 5.97132 1.74194 7.22311 1.74194ZM0 14.8065V15.9677C0 17.0884 0.986112 18 2.19834 18H12.2479C13.4601 18 14.4462 17.0884 14.4462 15.9677V14.8065C14.4462 11.1252 11.2059 8.12903 7.22311 8.12903C3.24035 8.12903 0 11.1252 0 14.8065ZM7.22311 9.87097C10.167 9.87097 12.5619 12.085 12.5619 14.8065V15.9677C12.5619 16.1274 12.4212 16.2581 12.2479 16.2581H2.19834C2.11505 16.2581 2.03517 16.2275 1.97627 16.173C1.91738 16.1186 1.88429 16.0447 1.88429 15.9677V14.8065C1.88429 12.085 4.27922 9.87097 7.22311 9.87097ZM16.0429 8.622V7.6831H17.0579C17.3077 7.6831 17.5474 7.59133 17.7241 7.428C17.9007 7.26466 18 7.04312 18 6.81213C18 6.58113 17.9007 6.3596 17.7241 6.19626C17.5474 6.03292 17.3077 5.94116 17.0579 5.94116H16.0429V5.00284C16.0429 4.77184 15.9436 4.55031 15.7669 4.38697C15.5902 4.22363 15.3506 4.13187 15.1007 4.13187C14.8508 4.13187 14.6112 4.22363 14.4345 4.38697C14.2578 4.55031 14.1586 4.77184 14.1586 5.00284V5.94116H13.1442C12.8943 5.94116 12.6547 6.03292 12.478 6.19626C12.3013 6.3596 12.202 6.58113 12.202 6.81213C12.202 7.04312 12.3013 7.26466 12.478 7.428C12.6547 7.59133 12.8943 7.6831 13.1442 7.6831H14.1586V8.622C14.1586 8.85299 14.2578 9.07453 14.4345 9.23787C14.6112 9.40121 14.8508 9.49297 15.1007 9.49297C15.3506 9.49297 15.5902 9.40121 15.7669 9.23787C15.9436 9.07453 16.0429 8.85299 16.0429 8.622Z" fill="black"/>
</svg>
