<svg width="28" height="19" viewBox="0 0 28 19" fill="none" xmlns="http://www.w3.org/2000/svg">
<path d="M14 16.9703C13.8474 16.9703 13.6939 16.9454 13.553 16.8963C11.977 16.3384 10.2258 16.0472 8.44827 16.0472C6.67077 16.0472 4.91957 16.3384 3.34358 16.8963C3.19631 16.948 3.03188 16.9733 2.8661 16.9695C2.70032 16.9657 2.53875 16.9331 2.39691 16.8748C2.25507 16.8164 2.13772 16.7343 2.05613 16.6363C1.97455 16.5383 1.93147 16.4277 1.93103 16.3151V3.86685C1.93102 3.76117 1.96869 3.65706 2.04081 3.56339C2.11294 3.46973 2.21738 3.38929 2.34524 3.32895C5.99586 1.60519 10.9007 1.60519 14.5523 3.32895C14.811 3.45147 14.9655 3.65261 14.9655 3.86685V16.3151C14.9655 16.4889 14.8638 16.6555 14.6827 16.7784C14.5016 16.9013 14.2561 16.9703 14 16.9703ZM8.44827 14.7368C10.0028 14.7368 11.5582 14.9262 13.0345 15.3048V4.22064C11.6533 3.64863 10.0664 3.346 8.44827 3.346C6.83013 3.346 5.24329 3.64863 3.86206 4.22064V15.3048C5.32771 14.9291 6.88153 14.7367 8.44827 14.7368Z" fill="black"/>
<path d="M25.1035 16.9703C24.9509 16.9703 24.7974 16.9454 24.6564 16.8963C23.0804 16.3384 21.3292 16.0472 19.5517 16.0472C17.7742 16.0472 16.023 16.3384 14.447 16.8963C14.2998 16.948 14.1353 16.9733 13.9696 16.9695C13.8038 16.9657 13.6422 16.9331 13.5004 16.8748C13.3585 16.8164 13.2412 16.7343 13.1596 16.6363C13.078 16.5383 13.0349 16.4277 13.0345 16.3151V3.86685C13.0345 3.76117 13.0721 3.65706 13.1443 3.56339C13.2164 3.46973 13.3208 3.38929 13.4487 3.32895C17.0993 1.60519 22.0041 1.60519 25.6557 3.32895C25.9145 3.45147 26.069 3.65261 26.069 3.86685V16.3151C26.069 16.4889 25.9672 16.6555 25.7862 16.7784C25.6051 16.9013 25.3595 16.9703 25.1035 16.9703ZM19.5517 14.7368C21.1062 14.7368 22.6617 14.9262 24.1379 15.3048V4.22064C22.7567 3.64863 21.1699 3.346 19.5517 3.346C17.9336 3.346 16.3467 3.64863 14.9655 4.22064V15.3048C16.4312 14.9291 17.985 14.7367 19.5517 14.7368Z" fill="black"/>
</svg>
