<svg width="65" height="65" viewBox="0 0 65 65" fill="none" xmlns="http://www.w3.org/2000/svg">
<circle cx="32.5" cy="32.5" r="32.5" transform="matrix(-1 0 0 1 65 0)" fill="#90E0EF" fill-opacity="0.5"/>
<path d="M48.0779 17.6919C47.8407 17.5196 47.5635 17.3972 47.2668 17.3338C46.97 17.2703 46.6611 17.2674 46.3629 17.3252C44.1813 17.7358 41.9291 17.741 39.7451 17.3406C37.5611 16.9402 35.4915 16.1426 33.6638 14.9969C33.322 14.784 32.916 14.6699 32.5 14.6699C32.084 14.6699 31.678 14.784 31.3363 14.9969C29.5085 16.1426 27.4389 16.9402 25.2549 17.3406C23.0709 17.741 20.8187 17.7358 18.6371 17.3252C18.3389 17.2674 18.03 17.2703 17.7332 17.3338C17.4365 17.3972 17.1593 17.5196 16.9221 17.6919C16.6852 17.8645 16.4944 18.0825 16.3637 18.3299C16.2329 18.5774 16.1656 18.848 16.1667 19.1219V32.7802C16.1649 35.4088 16.8624 37.9997 18.2013 40.3372C19.5401 42.6747 21.4815 44.6911 23.8638 46.2186L31.3158 50.9852C31.6616 51.2063 32.0755 51.3251 32.5 51.3251C32.9245 51.3251 33.3384 51.2063 33.6842 50.9852L41.1363 46.2186C43.5185 44.6911 45.4599 42.6747 46.7987 40.3372C48.1376 37.9997 48.8352 35.4088 48.8333 32.7802V19.1219C48.8344 18.848 48.7671 18.5774 48.6363 18.3299C48.5056 18.0825 48.3148 17.8645 48.0779 17.6919ZM44.75 32.7802C44.7516 34.824 44.2095 36.8385 43.169 38.6561C42.1285 40.4737 40.6196 42.042 38.7679 43.2302L32.5 47.2452L26.2321 43.2302C24.3804 42.042 22.8715 40.4737 21.831 38.6561C20.7905 36.8385 20.2484 34.824 20.25 32.7802V21.2302C24.5302 21.5592 28.8169 20.6674 32.5 18.6819C36.1831 20.6674 40.4698 21.5592 44.75 21.2302V32.7802Z" fill="black"/>
</svg>
