<svg width="73" height="73" viewBox="0 0 73 73" fill="none" xmlns="http://www.w3.org/2000/svg">
<g filter="url(#filter0_d_121_671)">
<circle cx="32.5" cy="32.5" r="32.5" transform="matrix(-1 0 0 1 69 0)" fill="#90E0EF" fill-opacity="0.5" shape-rendering="crispEdges"/>
</g>
<path d="M52.698 31.831C52.2339 31.831 51.7888 31.6655 51.4606 31.3708C51.1324 31.0761 50.948 30.6764 50.948 30.2596V25.8219C50.948 19.5362 44.48 14.5076 36.528 14.5076C28.576 14.5076 22.108 19.599 22.108 25.8219V30.2596C22.108 30.6764 21.9236 31.0761 21.5954 31.3708C21.2672 31.6655 20.8221 31.831 20.358 31.831C19.8939 31.831 19.4488 31.6655 19.1206 31.3708C18.7924 31.0761 18.608 30.6764 18.608 30.2596V25.8219C18.608 17.8265 26.658 11.3145 36.528 11.3145C46.398 11.3145 54.448 17.8265 54.448 25.8219V30.2596C54.4499 30.4664 54.4059 30.6715 54.3186 30.8629C54.2313 31.0543 54.1025 31.2282 53.9396 31.3745C53.7767 31.5208 53.5831 31.6364 53.3699 31.7148C53.1567 31.7932 52.9283 31.8327 52.698 31.831Z" fill="black"/>
<path d="M47.966 46.615C47.5019 46.615 47.0567 46.4494 46.7286 46.1547C46.4004 45.86 46.216 45.4603 46.216 45.0435V30.1212C46.2305 29.7132 46.4213 29.3264 46.7479 29.0424C47.0746 28.7585 47.5114 28.5999 47.966 28.6001C54 28.6001 58.914 32.6607 58.914 37.639C58.914 42.6172 54 46.615 47.966 46.615ZM49.716 31.8561V43.3087C51.2481 43.0809 52.6474 42.3893 53.6814 41.3488C54.7153 40.3083 55.3218 38.9814 55.4 37.5887C55.3249 36.1937 54.7198 34.8639 53.6856 33.8209C52.6514 32.7778 51.2504 32.0844 49.716 31.8561ZM25.034 46.615C19 46.615 14.086 42.567 14.086 37.5887C14.086 32.6104 19 28.6001 25.034 28.6001C25.4981 28.6001 25.9432 28.7657 26.2714 29.0604C26.5996 29.3551 26.784 29.7548 26.784 30.1715V45.0435C26.784 45.4603 26.5996 45.86 26.2714 46.1547C25.9432 46.4494 25.4981 46.615 25.034 46.615ZM23.284 31.8561C21.7496 32.0844 20.3486 32.7778 19.3144 33.8209C18.2801 34.8639 17.6751 36.1937 17.6 37.5887C17.6782 38.9814 18.2847 40.3083 19.3186 41.3488C20.3526 42.3893 21.7519 43.0809 23.284 43.3087V31.8561Z" fill="black"/>
<path d="M47.392 51.7314H41.596C41.1319 51.7314 40.6868 51.5659 40.3586 51.2712C40.0304 50.9765 39.846 50.5768 39.846 50.16C39.846 49.7432 40.0304 49.3435 40.3586 49.0488C40.6868 48.7541 41.1319 48.5886 41.596 48.5886H47.392C48.298 48.5886 49.1669 48.2654 49.8075 47.6902C50.4481 47.1149 50.808 46.3347 50.808 45.5212V44.8297C50.808 44.413 50.9924 44.0133 51.3206 43.7186C51.6488 43.4239 52.0939 43.2583 52.558 43.2583C53.0221 43.2583 53.4673 43.4239 53.7954 43.7186C54.1236 44.0133 54.308 44.413 54.308 44.8297V45.5212C54.308 47.1682 53.5794 48.7478 52.2824 49.9125C50.9854 51.0771 49.2262 51.7314 47.392 51.7314Z" fill="black"/>
<path d="M38.6 54.6856H35.142C33.8721 54.6856 32.6543 54.2327 31.7564 53.4264C30.8585 52.6201 30.354 51.5265 30.354 50.3862V50.2102C30.3577 49.0721 30.8638 47.9817 31.7613 47.1782C32.6588 46.3746 33.8746 45.9233 35.142 45.9233H38.6C39.8661 45.9233 41.0804 46.375 41.9757 47.1789C42.871 47.9829 43.374 49.0733 43.374 50.2102V50.3862C43.374 51.5243 42.8715 52.616 41.9766 53.4219C41.0817 54.2279 39.8674 54.6823 38.6 54.6856ZM35.17 49.0662C34.8308 49.0662 34.5053 49.1863 34.2642 49.4005C34.023 49.6147 33.8857 49.9056 33.882 50.2102V50.3862C33.882 50.6929 34.0177 50.9871 34.2593 51.204C34.5008 51.4209 34.8284 51.5428 35.17 51.5428H38.6C38.9392 51.5395 39.2632 51.4161 39.5017 51.1996C39.7402 50.9831 39.874 50.6908 39.874 50.3862V50.2102C39.874 49.9068 39.7398 49.6158 39.5009 49.4013C39.2619 49.1867 38.9379 49.0662 38.6 49.0662H35.17Z" fill="black"/>
<defs>
<filter id="filter0_d_121_671" x="0" y="0" width="73" height="73" filterUnits="userSpaceOnUse" color-interpolation-filters="sRGB">
<feFlood flood-opacity="0" result="BackgroundImageFix"/>
<feColorMatrix in="SourceAlpha" type="matrix" values="0 0 0 0 0 0 0 0 0 0 0 0 0 0 0 0 0 0 127 0" result="hardAlpha"/>
<feOffset dy="4"/>
<feGaussianBlur stdDeviation="2"/>
<feComposite in2="hardAlpha" operator="out"/>
<feColorMatrix type="matrix" values="0 0 0 0 0 0 0 0 0 0 0 0 0 0 0 0 0 0 0.25 0"/>
<feBlend mode="normal" in2="BackgroundImageFix" result="effect1_dropShadow_121_671"/>
<feBlend mode="normal" in="SourceGraphic" in2="effect1_dropShadow_121_671" result="shape"/>
</filter>
</defs>
</svg>
