<svg width="25" height="26" viewBox="0 0 25 26" fill="none" xmlns="http://www.w3.org/2000/svg">
<path d="M21.5381 0H2.50103C1.25783 0 0.246582 1.00928 0.246582 2.25005V23.75C0.246582 24.9907 1.25783 26 2.50103 26H21.5381C22.7813 26 23.7926 24.9907 23.7926 23.75V2.25005C23.7926 1.00928 22.7813 0 21.5381 0V0ZM1.74955 2.25005C1.74955 1.83646 2.08663 1.50003 2.50103 1.50003H21.5381C21.9525 1.50003 22.2896 1.83646 22.2896 2.25005V5.24991H1.74955V2.25005ZM22.2896 23.75C22.2896 24.1635 21.9525 24.5 21.5381 24.5H2.50103C2.08663 24.5 1.74955 24.1635 1.74955 23.75V6.74994H22.2896V23.75Z" fill="#484848"/>
<path d="M17.0285 2.625H15.5259C15.1109 2.625 14.7744 2.96083 14.7744 3.37502C14.7744 3.7892 15.1109 4.12503 15.5259 4.12503H17.0285C17.4435 4.12503 17.7799 3.7892 17.7799 3.37502C17.7799 2.96083 17.4435 2.625 17.0285 2.625Z" fill="#484848"/>
<path d="M21.0373 2.625H19.5347C19.1197 2.625 18.7832 2.96083 18.7832 3.37502C18.7832 3.7892 19.1197 4.12503 19.5347 4.12503H21.0373C21.4523 4.12503 21.7885 3.7892 21.7885 3.37502C21.7885 2.96083 21.4523 2.625 21.0373 2.625Z" fill="#484848"/>
<path d="M4.75562 15.625C4.75562 19.6227 8.01416 22.875 12.0196 22.875C16.0253 22.875 19.2838 19.6227 19.2838 15.625C19.2838 15.4304 19.2759 15.2376 19.2608 15.047C19.2608 15.046 19.2606 15.045 19.2606 15.0442C18.963 11.3171 15.8293 8.375 12.0196 8.375C8.21013 8.375 5.0764 11.3171 4.77887 15.0442C4.77867 15.045 4.77867 15.046 4.77867 15.047C4.76357 15.2376 4.75562 15.4304 4.75562 15.625ZM12.0196 21.375C8.97195 21.375 6.46986 19.0008 6.2715 16.0085C6.43368 16.0751 6.57738 16.1632 6.74135 16.2637C7.18457 16.5361 7.7365 16.8751 8.76326 16.8751C9.79002 16.8751 10.3418 16.5363 10.7852 16.2639C11.1527 16.0382 11.418 15.8752 12.0194 15.8752C12.6208 15.8752 12.8864 16.0382 13.2539 16.2639C13.6973 16.5361 14.2492 16.8751 15.276 16.8751C16.3027 16.8751 16.8547 16.5363 17.2981 16.2639C17.4621 16.1632 17.6058 16.0751 17.7677 16.0085C17.5696 19.0008 15.0675 21.375 12.0196 21.375ZM12.0196 9.87503C14.8002 9.87503 17.127 11.8511 17.6642 14.4701C17.1564 14.5903 16.8084 14.8034 16.5104 14.9863C16.1429 15.212 15.8774 15.3751 15.276 15.3751C14.6746 15.3751 14.409 15.212 14.0415 14.9863C13.5981 14.7139 13.0464 14.3749 12.0194 14.3749C10.9927 14.3749 10.4409 14.7139 9.99751 14.9863C9.63002 15.212 9.36449 15.3751 8.76326 15.3751C8.16183 15.3751 7.8963 15.212 7.52881 14.9863C7.23088 14.8032 6.88306 14.5901 6.37525 14.4701C6.91248 11.8511 9.23927 9.87503 12.0196 9.87503Z" fill="#484848"/>
</svg>
