<svg width="23" height="21" viewBox="0 0 23 21" fill="none" xmlns="http://www.w3.org/2000/svg">
<path d="M19.32 4.03371C18.3025 3.10447 16.9536 2.53949 15.5185 2.44154C14.0834 2.34359 12.6574 2.71916 11.5 3.49996C10.2807 2.67189 8.76297 2.29641 7.25257 2.44912C5.74217 2.60183 4.35123 3.27139 3.35987 4.32297C2.36851 5.37455 1.85035 6.73004 1.90975 8.11647C1.96914 9.5029 2.60168 10.8173 3.67998 11.795L10.8196 18.3137C10.9087 18.3957 11.0146 18.4608 11.1314 18.5052C11.2482 18.5497 11.3735 18.5725 11.5 18.5725C11.6265 18.5725 11.7518 18.5497 11.8685 18.5052C11.9853 18.4608 12.0913 18.3957 12.1804 18.3137L19.32 11.795C19.8784 11.2855 20.3213 10.6805 20.6235 10.0147C20.9257 9.3488 21.0813 8.6351 21.0813 7.91433C21.0813 7.19357 20.9257 6.47987 20.6235 5.81401C20.3213 5.14816 19.8784 4.5432 19.32 4.03371ZM17.9687 10.5612L11.5 16.4587L5.03123 10.5612C4.46119 10.0386 4.07287 9.37388 3.91499 8.65051C3.75711 7.92714 3.8367 7.17731 4.14377 6.49508C4.45084 5.81285 4.97171 5.2286 5.64106 4.81563C6.31041 4.40265 7.09841 4.17934 7.90623 4.17371C8.98542 4.17612 10.0194 4.5695 10.7812 5.26746C10.8703 5.34947 10.9763 5.41457 11.0931 5.45899C11.2099 5.50341 11.3351 5.52628 11.4616 5.52628C11.5882 5.52628 11.7134 5.50341 11.8302 5.45899C11.947 5.41457 12.053 5.34947 12.1421 5.26746C12.9263 4.64698 13.9394 4.32171 14.9764 4.35748C16.0133 4.39325 16.9967 4.78739 17.7274 5.46012C18.4581 6.13286 18.8816 7.03394 18.9122 7.981C18.9428 8.92806 18.5781 9.85035 17.8921 10.5612H17.9687Z" fill="black"/>
</svg>
